<?xml version="1.0" standalone="no"?> 
<!DOCTYPE svg PUBLIC "-//W3C//DTD SVG 1.1//EN" "http://www.w3.org/Graphics/SVG/1.1/DTD/svg11.dtd" >
<svg xmlns="http://www.w3.org/2000/svg">
<defs>
  <font id="icons" horiz-adv-x="64">
    <font-face font-family="icons"
      units-per-em="64" ascent="64"
      descent="0" />
    <missing-glyph horiz-adv-x="0" />
    <glyph glyph-name="add"
      unicode="&#xF101;"
      horiz-adv-x="64" d=" M64 38.4L38.4 38.4L38.4 64L25.6 64L25.6 38.4L0 38.4L0 25.6L25.6 25.6L25.6 0L38.4 0L38.4 25.6L64 25.6L64 38.4z" />
    <glyph glyph-name="arrow-down"
      unicode="&#xF102;"
      horiz-adv-x="64" d=" M55.3 19.9L36.1 1.6C35.1 0.5 33.6 0 32 0C30.4 0 29 0.5 27.9 1.6L8.7 19.9C6.4 22.1 6.4 25.6 8.7 27.8S14.7 30 16.9 27.8L26.1 19.1V58.4C26.2 61.5 28.8 64 32 64S37.8 61.5 37.8 58.4V19L47 27.8C49.3 30 53 30 55.2 27.8C57.6 25.6 57.6 22.1 55.3 19.9z" />
    <glyph glyph-name="arrow-up"
      unicode="&#xF103;"
      horiz-adv-x="64" d=" M8.7 44.1L27.9 62.4C28.9 63.5 30.4 64 32 64C33.6 64 35 63.5 36.1 62.4L55.3 44.2C57.6 42 57.6 38.5 55.3 36.3S49.3 34.1 47.1 36.3L37.8 45V5.5C37.8 2.4 35.2 -0.1 32 -0.1C28.8 -0.1 26.2 2.4 26.2 5.5V45L17 36.3C14.7 34.1 11 34.1 8.8 36.3C6.4 38.4 6.4 41.9 8.7 44.1z" />
    <glyph glyph-name="chat_line"
      unicode="&#xF104;"
      horiz-adv-x="64" d=" M46.5 57.7H3.6C1.6 57.7 0 56 0 54.1V28.3C0 26.3 1.6 24.7 3.6 24.7H6.4V15.1C6.4 14.5 6.8 13.9 7.3 13.7C7.5 13.6 7.7 13.6 7.9 13.6C8.3 13.6 8.7 13.8 9 14L19.7 24.7H21.8C22.6 24.7 23.3 25.4 23.3 26.2S22.6 27.7 21.8 27.7C21.8 27.7 19 27.7 18.9 27.7C18.5 27.7 18.2 27.5 17.9 27.3L9.4 18.8C9.4 18.8 9.4 26.3 9.4 26.4C9.3 27.2 8.7 27.8 7.9 27.8H3.6C3.3 27.7 3 28 3 28.3V54.1C3 54.4 3.3 54.7 3.6 54.7H46.5C46.8 54.7 47.1 54.4 47.1 54.1V44.2C47.1 43.4 47.8 42.7 48.6 42.7S50.1 43.4 50.1 44.2V54.1C50.1 56 48.5 57.7 46.5 57.7z M60.4 39.2H30.3C28.3 39.2 26.7 37.6 26.7 35.6V18C26.7 16 28.3 14.4 30.3 14.4H49.1L56.7 6.8C57 6.5 57.4 6.4 57.8 6.4C58 6.4 58.2 6.4 58.4 6.5C59 6.7 59.3 7.3 59.3 7.9V14.5H60.3C62.3 14.5 63.9 16.1 63.9 18.1V35.6C64 37.6 62.4 39.2 60.4 39.2zM61 18C61 17.7 60.7 17.4 60.4 17.4H57.9C57.1 17.4 56.5 16.8 56.4 16V11.5L50.9 17L50.9 17C50.9 17 50.9 17 50.8 17.1C50.5 17.3 50.2 17.5 49.8 17.5H30.3C30 17.5 29.7 17.8 29.7 18.1V35.6C29.7 35.9 30 36.2 30.3 36.2H60.4C60.7 36.2 61 35.9 61 35.6V18z" />
    <glyph glyph-name="check_line"
      unicode="&#xF105;"
      horiz-adv-x="64" d=" M21.3 9.4L64 52.2L61.6 54.6L20.1 13L2.4 30.6L0 28.2L18.9 9.4z" />
    <glyph glyph-name="check-circle_line"
      unicode="&#xF106;"
      horiz-adv-x="64" d=" M32 0A32 32 0 1 0 64 32A32 32 0 0 0 32 0zM32 62A30 30 0 1 1 62 32A30 30 0 0 1 32 62z M25 18A1 1 0 0 0 24.3 18.3L14.3 28.3A1 1 0 0 0 15.72 29.72L25.02 20.42L48.3 43.7A1 1 0 0 0 49.72 42.28L25.72 18.28A1 1 0 0 0 25 18z" />
    <glyph glyph-name="checkbox-checked"
      unicode="&#xF107;"
      horiz-adv-x="64" d=" M51.2 30.9333333333333V6.4H4.9777777777778V52.6222222222222H39.1111111111111L41.9555555555556 56.1777777777778H1.4222222222222V2.8444444444444H54.7555555555556V35.2L51.2 30.9333333333333z" />
    <glyph glyph-name="checkbox-checkmark"
      unicode="&#xF108;"
      horiz-adv-x="64" d=" M60.8 57.6L56.5333333333333 61.1555555555556C55.1111111111111 61.8666666666667 54.0444444444445 61.5111111111111 52.6222222222222 60.0888888888889L35.5555555555556 38.7555555555556L28.0888888888889 29.1555555555556L19.2 40.1777777777778L18.8444444444444 40.5333333333333C17.7777777777778 41.6 16 41.6 14.9333333333333 40.5333333333333L10.6666666666667 36.9777777777778C9.6 35.9111111111111 9.6 34.1333333333333 10.6666666666667 33.0666666666667C15.2888888888889 27.7333333333333 20.2666666666667 22.0444444444445 24.8888888888889 16.3555555555556C25.2444444444444 15.6444444444445 25.9555555555556 15.2888888888889 26.6666666666667 14.9333333333333C28.4444444444444 13.8666666666667 30.9333333333333 14.5777777777778 32 16.3555555555556L61.5111111111111 52.9777777777778L61.8666666666667 53.6888888888889C62.5777777777778 55.4666666666667 62.5777777777778 56.1777777777778 60.8 57.6z" />
    <glyph glyph-name="checkbox-unchecked"
      unicode="&#xF109;"
      horiz-adv-x="64" d=" M1.4222222222222 56.1777777777778C1.4222222222222 38.4 1.4222222222222 20.6222222222222 1.4222222222222 2.8444444444444H54.7555555555556V56.1777777777778C54.7555555555556 56.1777777777778 54.7555555555556 56.1777777777778 54.7555555555556 56.1777777777778C36.9777777777778 56.1777777777778 19.2 56.1777777777778 1.4222222222222 56.1777777777778zM51.2 6.4H4.9777777777778V52.6222222222222H51.2L51.2 6.4z" />
    <glyph glyph-name="chevron-down_line"
      unicode="&#xF10A;"
      horiz-adv-x="64" d=" M64 32C64 49.7 49.7 64 32 64S0 49.7 0 32S14.3 0 32 0S64 14.3 64 32zM3 32C3 48 16 61 32 61S61 48 61 32S48 3 32 3S3 16 3 32z M32.4 23C32.5 23 32.7 23 32.8 23.1C32.9 23.1 33 23.1 33.1 23.2C33.2 23.2 33.3 23.3 33.4 23.3C33.5 23.4 33.6 23.4 33.8 23.5C33.9 23.5 34 23.6 34.1 23.6C34.2 23.6 34.2 23.7 34.3 23.8C35.3 24.5 36.2 25.5 37 26.3C39.1 28.4 41.2 30.5 43.4 32.7C44.5 33.8 44.8 34.1 44.9 34.2C44.9 34.2 44.9 34.2 44.9 34.2C44.9 34.2 44.9 34.2 44.9 34.2C45 34.3 45.4 34.7 46.4 35.7C47.7 37 45.7 39 44.4 37.7C44.1 37.4 43.9 37.2 43.7 37C43.7 37 43.7 37 43.7 37C43.7 37 43.6 36.9 43.6 36.9C43.6 36.9 43.5 36.8 43.5 36.8C43.4 36.7 43.4 36.7 43.3 36.6C43.3 36.6 43.3 36.6 43.4 36.7C43.2 36.5 43 36.3 42.6 35.9C40.4 33.7 38.1 31.4 35.9 29.2C35.2 28.5 34.4 27.7 33.7 27C33.5 26.8 33.3 26.6 33.1 26.4C33 26.3 33 26.3 32.9 26.2C32.9 26.2 32.8 26.1 32.8 26.1C32.7 26 32.5 26 32.5 25.9C32.5 25.9 32.5 25.9 32.5 25.9C32.4 25.9 32.3 25.9 32.3 25.9C32.2 25.9 32.1 25.9 32.1 25.9C32.1 25.9 32 25.9 31.9 25.9C31.9 25.9 31.9 25.9 31.9 25.9C31.9 25.9 31.7 26 31.6 26.1C31.6 26.1 31.5 26.2 31.5 26.2C31.4 26.3 31.4 26.3 31.3 26.4C31.1 26.6 30.9 26.8 30.7 27C30 27.7 29.2 28.5 28.5 29.2C26.3 31.4 24 33.7 21.8 35.9C21.4 36.3 21.2 36.5 21 36.7C21 36.7 21.1 36.6 21.1 36.6C21.1 36.6 21 36.7 20.9 36.8C20.9 36.8 20.8 36.9 20.8 36.9C20.8 36.9 20.7 37 20.7 37C20.7 37 20.7 37 20.7 37C20.5 37.2 20.3 37.4 20 37.7C18.7 39 16.7 37 18 35.7C19.1 34.6 19.4 34.3 19.5 34.2C19.5 34.2 19.5 34.2 19.5 34.2C19.5 34.2 19.5 34.2 19.5 34.2C19.6 34.1 19.9 33.8 21 32.7C23.1 30.6 25.2 28.5 27.4 26.3C28.2 25.5 29.1 24.5 30.1 23.8C30.2 23.7 30.2 23.7 30.3 23.6C30.4 23.5 30.5 23.5 30.6 23.5C30.7 23.4 30.8 23.4 31 23.3C31.1 23.3 31.2 23.2 31.3 23.2C31.4 23.2 31.5 23.1 31.6 23.1C31.7 23.1 31.9 23 32 23C32 23 32 23 32 23C32.1 23 32.2 23 32.3 23C32.1 23 32.2 23 32.4 23C32.4 23 32.4 23 32.4 23z" />
    <glyph glyph-name="chevron-down"
      unicode="&#xF10B;"
      horiz-adv-x="64" d=" M32 12.8C30.3 12.8 28.7 13.5 27.5 14.7L1.9 40.2C-0.6 42.7 -0.6 46.8 1.9 49.3S8.5 51.8 11 49.3L32 28.2L53 49.3C55.5 51.8 59.6 51.8 62.1 49.3C64.6 46.8 64.6 42.7 62.1 40.2L36.5 14.7C35.3 13.5 33.7 12.8 32 12.8z" />
    <glyph glyph-name="chevron-left_line"
      unicode="&#xF10C;"
      horiz-adv-x="64" d=" M32 0C49.7 0 64 14.3 64 32S49.7 64 32 64S0 49.7 0 32S14.3 0 32 0zM32 61C48 61 61 48 61 32S48 3 32 3S3 16 3 32S16 61 32 61z M21 31.6C21 31.5 21 31.3 21.1 31.2C21.1 31.1 21.1 31 21.2 30.9C21.2 30.8 21.3 30.7 21.3 30.6C21.4 30.5 21.4 30.4 21.5 30.2C21.5 30.1 21.6 30 21.6 29.9C21.6 29.8 21.7 29.8 21.8 29.7C22.5 28.7 23.5 27.8 24.3 27C26.4 24.9 28.5 22.8 30.7 20.6C31.8 19.5 32.1 19.2 32.2 19.1C32.2 19.1 32.2 19.1 32.2 19.1C32.2 19.1 32.2 19.1 32.2 19.1C32.3 19 32.7 18.6 33.7 17.6C35 16.3 37 18.3 35.7 19.6C35.4 19.9 35.2 20.1 35 20.3C35 20.3 35 20.3 35 20.3C35 20.3 34.9 20.4 34.9 20.4C34.9 20.4 34.8 20.5 34.8 20.5C34.7 20.6 34.7 20.6 34.6 20.7C34.6 20.7 34.6 20.7 34.7 20.6C34.5 20.8 34.3 21 33.9 21.4C31.7 23.6 29.4 25.9 27.2 28.1C26.5 28.8 25.7 29.6 25 30.3C24.8 30.5 24.6 30.7 24.4 30.9C24.3 31 24.3 31 24.2 31.1C24.2 31.1 24.1 31.2 24.1 31.2C24 31.3 24 31.5 23.9 31.5C23.9 31.5 23.9 31.5 23.9 31.5C23.9 31.6 23.9 31.7 23.9 31.7C23.9 31.8 23.9 31.9 23.9 31.9C23.9 31.9 23.9 32 23.9 32.1C23.9 32.1 23.9 32.1 23.9 32.1C23.9 32.1 24 32.3 24.1 32.4C24.1 32.4 24.2 32.5 24.2 32.5C24.3 32.6 24.3 32.6 24.4 32.7C24.6 32.9 24.8 33.1 25 33.3C25.7 34 26.5 34.8 27.2 35.5C29.4 37.7 31.7 40 33.9 42.2C34.3 42.6 34.5 42.8 34.7 43C34.7 43 34.6 42.9 34.6 42.9C34.6 42.9 34.7 43 34.8 43.1C34.8 43.1 34.9 43.2 34.9 43.2C34.9 43.2 35 43.3 35 43.3C35 43.3 35 43.3 35 43.3C35.2 43.5 35.4 43.7 35.7 44C37 45.3 35 47.3 33.7 46C32.6 44.9 32.3 44.6 32.2 44.5C32.2 44.5 32.2 44.5 32.2 44.5C32.2 44.5 32.2 44.5 32.2 44.5C32.1 44.4 31.8 44.1 30.7 43C28.6 40.9 26.5 38.8 24.3 36.6C23.5 35.8 22.5 34.9 21.8 33.9C21.7 33.8 21.7 33.8 21.6 33.7C21.5 33.6 21.5 33.5 21.5 33.4C21.4 33.3 21.4 33.2 21.3 33C21.3 32.9 21.2 32.8 21.2 32.7C21.2 32.6 21.1 32.5 21.1 32.4C21.1 32.3 21 32.1 21 32C21 32 21 32 21 32C21 31.9 21 31.8 21 31.7C21 31.9 21 31.8 21 31.6C21 31.6 21 31.6 21 31.6z" />
    <glyph glyph-name="chevron-left"
      unicode="&#xF10D;"
      horiz-adv-x="64" d=" M12.8 32C12.8 33.7 13.5 35.3 14.7 36.5L40.2 62.1C42.7 64.6 46.8 64.6 49.3 62.1C51.8 59.6 51.8 55.5 49.3 53L28.2 32L49.3 11C51.8 8.5 51.8 4.4 49.3 1.9C46.8 -0.6 42.7 -0.6 40.2 1.9L14.7 27.5C13.5 28.7 12.8 30.3 12.8 32z" />
    <glyph glyph-name="chevron-right_line"
      unicode="&#xF10E;"
      horiz-adv-x="64" d=" M32 64C14.3 64 0 49.7 0 32S14.3 0 32 0S64 14.3 64 32S49.7 64 32 64zM32 3C16 3 3 16 3 32S16 61 32 61S61 48 61 32S48 3 32 3z M43 32.4C43 32.5 43 32.7 42.9 32.8C42.9 32.9 42.9 33 42.8 33.1C42.8 33.2 42.7 33.3 42.7 33.4C42.6 33.5 42.6 33.6 42.5 33.8C42.5 33.9 42.4 34 42.4 34.1C42.4 34.2 42.3 34.2 42.2 34.3C41.5 35.3 40.5 36.2 39.7 37C37.6 39.1 35.5 41.2 33.3 43.4C32.2 44.5 31.9 44.8 31.8 44.9C31.8 44.9 31.8 44.9 31.8 44.9C31.8 44.9 31.8 44.9 31.8 44.9C31.7 45 31.3 45.4 30.3 46.4C29 47.7 27 45.7 28.3 44.4C28.6 44.1 28.8 43.9 29 43.7C29 43.7 29 43.7 29 43.7C29 43.7 29.1 43.6 29.1 43.6C29.1 43.6 29.2 43.5 29.2 43.5C29.3 43.4 29.3 43.4 29.4 43.3C29.4 43.3 29.4 43.3 29.3 43.4C29.5 43.2 29.7 43 30.1 42.6C32.3 40.4 34.6 38.1 36.8 35.9C37.5 35.2 38.3 34.4 39 33.7C39.2 33.5 39.4 33.3 39.6 33.1C39.7 33 39.7 33 39.8 32.9C39.8 32.9 39.9 32.8 39.9 32.8C40 32.7 40 32.5 40.1 32.5C40.1 32.5 40.1 32.5 40.1 32.5C40.1 32.4 40.1 32.3 40.1 32.3C40.1 32.2 40.1 32.1 40.1 32.1C40.1 32.1 40.1 32 40.1 31.9C40.1 31.9 40.1 31.9 40.1 31.9C40.1 31.9 40 31.7 39.9 31.6C39.9 31.6 39.8 31.5 39.8 31.5C39.7 31.4 39.7 31.4 39.6 31.3C39.4 31.1 39.2 30.9 39 30.7C38.3 30 37.5 29.2 36.8 28.5C34.6 26.3 32.3 24 30.1 21.8C29.7 21.4 29.5 21.2 29.3 21C29.3 21 29.4 21.1 29.4 21.1C29.4 21.1 29.3 21 29.2 20.9C29.2 20.9 29.1 20.8 29.1 20.8C29.1 20.8 29 20.7 29 20.7C29 20.7 29 20.7 29 20.7C28.8 20.5 28.6 20.3 28.3 20C27 18.7 29 16.7 30.3 18C31.4 19.1 31.7 19.4 31.8 19.5C31.8 19.5 31.8 19.5 31.8 19.5C31.8 19.5 31.8 19.5 31.8 19.5C31.9 19.6 32.2 19.9 33.3 21C35.4 23.1 37.5 25.2 39.7 27.4C40.5 28.2 41.5 29.1 42.2 30.1C42.3 30.2 42.3 30.2 42.4 30.3C42.5 30.4 42.5 30.5 42.5 30.6C42.6 30.7 42.6 30.8 42.7 31C42.7 31.1 42.8 31.2 42.8 31.3C42.8 31.4 42.9 31.5 42.9 31.6C42.9 31.7 43 31.9 43 32C43 32 43 32 43 32C43 32.1 43 32.2 43 32.3C43 32.1 43 32.2 43 32.4C43 32.4 43 32.4 43 32.4z" />
    <glyph glyph-name="chevron-right"
      unicode="&#xF10F;"
      horiz-adv-x="64" d=" M51.2 32C51.2 30.3 50.5 28.7 49.3 27.5L23.8 1.9C21.3 -0.6 17.2 -0.6 14.7 1.9C12.2 4.4 12.2 8.5 14.7 11L35.8 32L14.7 53C12.2 55.5 12.2 59.6 14.7 62.1S21.3 64.6 23.8 62.1L49.3 36.5C50.5 35.3 51.2 33.7 51.2 32z" />
    <glyph glyph-name="chevron-up_line"
      unicode="&#xF110;"
      horiz-adv-x="64" d=" M0 32C0 14.3 14.3 0 32 0S64 14.3 64 32S49.7 64 32 64S0 49.7 0 32zM61 32C61 16 48 3 32 3S3 16 3 32S16 61 32 61S61 48 61 32z M31.6 41C31.5 41 31.3 41 31.2 40.9C31.1 40.9 31 40.9 30.9 40.8C30.8 40.8 30.7 40.7 30.6 40.7C30.5 40.6 30.4 40.6 30.2 40.5C30.1 40.5 30 40.4 29.9 40.4C29.8 40.4 29.8 40.3 29.7 40.2C28.7 39.5 27.8 38.5 27 37.7C24.9 35.6 22.8 33.5 20.6 31.3C19.5 30.2 19.2 29.9 19.1 29.8C19.1 29.8 19.1 29.8 19.1 29.8C19.1 29.8 19.1 29.8 19.1 29.8C19 29.7 18.6 29.3 17.6 28.3C16.3 27 18.3 25 19.6 26.3C19.9 26.6 20.1 26.8 20.3 27C20.3 27 20.3 27 20.3 27C20.3 27 20.4 27.1 20.4 27.1C20.4 27.1 20.5 27.2 20.5 27.2C20.6 27.3 20.6 27.3 20.7 27.4C20.7 27.4 20.7 27.4 20.6 27.3C20.8 27.5 21 27.7 21.4 28.1C23.6 30.3 25.9 32.6 28.1 34.8C28.8 35.5 29.6 36.3 30.3 37C30.5 37.2 30.7 37.4 30.9 37.6C31 37.7 31 37.7 31.1 37.8C31.1 37.8 31.2 37.9 31.2 37.9C31.3 38 31.5 38 31.5 38.1C31.5 38.1 31.5 38.1 31.5 38.1C31.6 38.1 31.7 38.1 31.7 38.1C31.8 38.1 31.9 38.1 31.9 38.1C31.9 38.1 32 38.1 32.1 38.1C32.1 38.1 32.1 38.1 32.1 38.1C32.1 38.1 32.3 38 32.4 37.9C32.4 37.9 32.5 37.8 32.5 37.8C32.6 37.7 32.6 37.7 32.7 37.6C32.9 37.4 33.1 37.2 33.3 37C34 36.3 34.8 35.5 35.5 34.8C37.7 32.6 40 30.3 42.2 28.1C42.6 27.7 42.8 27.5 43 27.3C43 27.3 42.9 27.4 42.9 27.4C42.9 27.4 43 27.3 43.1 27.2C43.1 27.2 43.2 27.1 43.2 27.1C43.2 27.1 43.3 27 43.3 27C43.3 27 43.3 27 43.3 27C43.5 26.8 43.7 26.6 44 26.3C45.3 25 47.3 27 46 28.3C44.9 29.4 44.6 29.7 44.5 29.8C44.5 29.8 44.5 29.8 44.5 29.8C44.5 29.8 44.5 29.8 44.5 29.8C44.4 29.9 44.1 30.2 43 31.3C40.9 33.4 38.8 35.5 36.6 37.7C35.8 38.5 34.9 39.5 33.9 40.2C33.8 40.3 33.8 40.3 33.7 40.4C33.6 40.5 33.5 40.5 33.4 40.5C33.3 40.6 33.2 40.6 33 40.7C32.9 40.7 32.8 40.8 32.7 40.8C32.6 40.8 32.5 40.9 32.4 40.9C32.3 40.9 32.1 41 32 41C32 41 32 41 32 41C31.9 41 31.8 41 31.7 41C31.9 41 31.8 41 31.6 41C31.6 41 31.6 41 31.6 41z" />
    <glyph glyph-name="chevron-up"
      unicode="&#xF111;"
      horiz-adv-x="64" d=" M32 51.2C33.7 51.2 35.3 50.5 36.5 49.3L62.1 23.8C64.6 21.3 64.6 17.2 62.1 14.7C59.6 12.2 55.5 12.2 53 14.7L32 35.8L11 14.7C8.5 12.2 4.4 12.2 1.9 14.7C-0.6 17.2 -0.6 21.3 1.9 23.8L27.5 49.3C28.7 50.5 30.3 51.2 32 51.2z" />
    <glyph glyph-name="close_thin"
      unicode="&#xF112;"
      horiz-adv-x="57.826366559485535" d=" M35.7556270096463 32L56.3344051446945 55.5112540192926A5.144694533762058 5.144694533762058 0 0 1 48.9260450160772 62.3022508038585L28.9131832797428 39.6655948553055L8.9003215434084 62.3022508038585A5.144694533762058 5.144694533762058 0 0 1 1.2861736334405 55.5112540192926L21.8649517684887 32L1.2861736334405 8.4887459807074A5.144694533762058 5.144694533762058 0 1 1 8.9003215434084 1.7491961414791L28.9131832797428 24.2829581993569L48.9260450160772 1.6977491961415A5.144694533762058 5.144694533762058 0 0 1 56.5916398713826 8.4372990353698z" />
    <glyph glyph-name="close"
      unicode="&#xF113;"
      horiz-adv-x="64" d=" M42.87 32L61.76 50.89A7.68 7.68 0 0 1 50.89 61.76L32 42.87L13.11 61.76A7.68 7.68 0 0 1 2.24 50.89L21.13 32L2.24 13.11A7.709999999999999 7.709999999999999 0 0 1 2.24 2.24H2.24A7.709999999999999 7.709999999999999 0 0 1 13.11 2.24L32 21.13L50.89 2.24A7.709999999999999 7.709999999999999 0 0 1 61.76 2.24H61.76A7.709999999999999 7.709999999999999 0 0 1 61.76 13.11z" />
    <glyph glyph-name="copy-error"
      unicode="&#xF114;"
      horiz-adv-x="54.857142857142854" d=" M0 54.8571428571429H45.7154016V0H0V54.8571428571429z M9.1428571428571 64L54.8571428571429 64L54.8571428571429 9.1428571428571L50.2857142857143 9.1428571428571L50.2857142857143 59.4285714285714L9.1428571428571 59.4285714285714 M9.8028993371429 34.813641234286L15.5887237028572 29.0296831542858L15.5887237028572 29.0278648685713L17.1888260114286 27.427775862857L15.5887237028572 25.8276868114283L9.8028993371429 20.0419104457142C8.922843062857 19.1618614857143 8.922843062857 17.7217814857145 9.8028993371429 16.8417325714285L11.0375237028571 15.6071181714287L12.2685114971428 14.3743222857141C13.1503860114286 13.4942733714285 14.59047808 13.4942733714285 15.4705343542857 14.3743222857141L22.8582793142858 21.7601878399998L24.4583815771428 20.1582805485715L30.2423876571429 14.3743222857141C31.1242622171428 13.4942733714285 32.5643542399999 13.4942733714285 33.4444105142858 14.3743222857141L34.6772165942857 15.6071181714287L35.9100226742856 16.8417325714285C36.7918971885715 17.7217814857145 36.7918971885715 19.1618614857143 35.9100226742856 20.0419104457142L28.5259142857142 27.427775862857L35.9100226742856 34.813641234286C36.7918971885715 35.6936901942858 36.7918971885715 37.1337703314286 35.9100226742856 38.0156375314286L33.4444105142858 40.4830475428571C32.5643542399999 41.3630965028569 31.1242622171428 41.3630965028569 30.2423876571429 40.4812292571431L24.4583815771428 34.6972711314286L24.4583815771428 34.6972711314286L22.8582793142858 33.0971821257143L15.4705343542857 40.4830475428571C14.59047808 41.3630965028569 13.1503860114286 41.3630965028569 12.2685114971428 40.4812292571431L9.8028993371429 38.0156375314286C8.922843062857 37.1337703314286 8.922843062857 35.6936901942858 9.8028993371429 34.813641234286" />
    <glyph glyph-name="copy-normal"
      unicode="&#xF115;"
      horiz-adv-x="54.857142857142854" d=" M9.1428571428571 64L54.8571428571429 64L54.8571428571429 9.1428571428571L50.2857142857143 9.1428571428571L50.2857142857143 59.4285714285714L9.1428571428571 59.4285714285714 M-0.0011160714286 54.8571428571429L45.7142857142857 54.8571428571429L45.7142857142857 0L-0.0011160714286 0L-0.0011160714286 54.8571428571429zM4.5714285714286 50.2857142857143L4.5714285714286 4.5714285714286L41.1428571428571 4.5714285714286L41.1428571428571 50.2857142857143L4.5714285714286 50.2857142857143z" />
    <glyph glyph-name="copy-success"
      unicode="&#xF116;"
      horiz-adv-x="54.857142857142854" d=" M0 54.8571428571429H45.7142857142857V0H0V54.8571428571429z M9.1428571428571 64L54.8571428571429 64L54.8571428571429 9.1428571428571L50.2857142857143 9.1428571428571L50.2857142857143 59.4285714285714L9.1428571428571 59.4285714285714 M38.4005108571429 40.4295844571427C37.5471292799999 41.3344191542858 36.0975496685714 41.3864544 35.1798722285714 40.539436617143L33.6280037485714 39.1084679771429C30.54472448 36.2667665828571 27.4672903314287 33.4279560685715 24.3898561828571 30.5891455542858L18.3109738514286 24.980904822857C17.755691337143 24.4721159771429 17.2004088228571 23.9575454628573 16.6451263085715 23.4458657371428C14.6636444800001 25.5446197485716 12.6938528457143 27.6318103771428 10.7152935314285 29.7276735542858C9.861912 30.6353990857143 8.415254902857 30.684543497143 7.497577462857 29.8375256685714L7.0913444571428 29.4617157485716C6.4922238628572 28.9066733714286 5.8901807085715 28.3545218285713 5.2939826285715 27.8052611200001C4.3763052205715 26.9582433371428 4.326622048 25.5272746971428 5.1800036114286 24.6195491199999L12.8458248685713 16.4904909714286C13.4946286628573 15.8024694857143 14.1434324571429 15.114448457143 14.7922362514286 14.4264269714287C15.645617782857 13.5215922285715 17.0951973942857 13.4724479999999 18.0099522742858 14.3165750857144L27.5345087542857 23.0989642514287C31.8306419200001 27.0594229028572 36.1238525257143 31.0198816000001 40.4229082514285 34.9832310857143C41.3376631314285 35.8273580342858 41.3873462857142 37.2612175542857 40.5339647542857 38.1660522514285L38.4005108571429 40.4295844571427z" />
    <glyph glyph-name="counter_line"
      unicode="&#xF117;"
      horiz-adv-x="102.50874562718639" d=" M80.151924037981 55.0444777611194A51.174412793603196 51.174412793603196 0 0 1 22.3888055972014 55.0444777611194A51.68615692153924 51.68615692153924 0 0 1 1.2473763118441 1.2473763118441A1.5992003998000999 1.5992003998000999 0 0 1 2.8145927036482 0.031984007996H99.7261369315342A1.5992003998000999 1.5992003998000999 0 0 1 101.2933533233383 1.2793603198401A51.718140929535224 51.718140929535224 0 0 1 80.151924037981 55.0444777611194zM98.4147926036982 3.2303848075962H4.0939530234883A48.48775612193903 48.48775612193903 0 0 0 24.1799100449775 52.4217891054473A47.976011994003 47.976011994003 0 0 0 78.3608195902049 52.4217891054473A48.48775612193903 48.48775612193903 0 0 0 98.4147926036982 3.2303848075962z M78.2968515742129 14.3928035982009A1.5992003998000999 1.5992003998000999 0 0 1 79.896051974013 12.7936031984008H87.8920539730135A1.5992003998000999 1.5992003998000999 0 0 1 87.8920539730135 15.992003998001H79.960019990005A1.5992003998000999 1.5992003998000999 0 0 1 78.2968515742129 14.3928035982009z M22.3888055972014 16.023988005997H14.3288355822089A1.5992003998000999 1.5992003998000999 0 1 1 14.3288355822089 12.8255872063968H22.3888055972014A1.5992003998000999 1.5992003998000999 0 0 1 22.3888055972014 16.023988005997z M22.3888055972014 37.4212893553223A1.5992003998000999 1.5992003998000999 0 1 1 20.4697651174413 34.8625687156422L26.8665667166417 30.0649675162419A1.5992003998000999 1.5992003998000999 0 0 1 28.7856071964018 32.623688155922z M41.5792103948026 49.7671164417791A1.5992003998000999 1.5992003998000999 0 0 1 38.5407296351824 48.743628185907L41.0994502748626 41.0674662668666A1.5992003998000999 1.5992003998000999 0 0 1 42.6026986506747 39.9800099950025L43.1144427786107 39.9800099950025A1.5992003998000999 1.5992003998000999 0 0 1 44.1379310344828 41.9950024987506z M62.8165917041479 50.7906046976512A1.5992003998000999 1.5992003998000999 0 0 1 60.8015992003998 49.7671164417791L58.2428785607196 42.0909545227386A1.5992003998000999 1.5992003998000999 0 0 1 59.2663668165917 40.0759620189905L59.7781109445277 40.0759620189905A1.5992003998000999 1.5992003998000999 0 0 1 61.2813593203398 41.1634182908546L63.84007996002 48.8395802098951A1.5992003998000999 1.5992003998000999 0 0 1 62.8165917041479 50.7906046976512z M82.1349325337331 37.1014492753623A1.5992003998000999 1.5992003998000999 0 0 1 79.896051974013 37.4212893553223L73.4992503748126 32.623688155922A1.5992003998000999 1.5992003998000999 0 1 1 75.4182908545727 30.0649675162419L81.8150924537731 34.8625687156422A1.5992003998000999 1.5992003998000999 0 0 1 82.1349325337331 37.1014492753623z M48.551724137931 15.352323838081A3.422288855572214 3.422288855572214 0 0 1 53.3493253373313 10.5547226386807C54.6286856571714 11.8340829585207 62.9445277361319 23.0284857571214 61.9850074962519 24.3078460769615S49.8310844577711 16.631684157921 48.551724137931 15.352323838081z" />
    <glyph glyph-name="error_circle"
      unicode="&#xF118;"
      horiz-adv-x="64" d=" M32 64C49.7 64 64 49.7 64 32S49.7 0 32 0S0 14.3 0 32S14.3 64 32 64zM17.9 40L25.9 32L17.9 24C17 23 17 21.5 17.9 20.5L19.2 19.2L20.5 17.9C21.5 17 23 17 24 17.9L32 25.9L40 17.9C41 17 42.5 17 43.5 17.9L44.8 19.2L46.1 20.5C47 21.5 47 23 46.1 24L38.1 32L46.1 40C47 41 47 42.5 46.1 43.5L43.4 46.2C42.4 47.1 40.9 47.1 39.9 46.2L31.9 38.2L23.9 46.2C22.9 47.1 21.4 47.1 20.4 46.2L17.7 43.5C17 42.5 17 40.9 17.9 40z" />
    <glyph glyph-name="error"
      unicode="&#xF119;"
      horiz-adv-x="64" d=" M9.1 44.9L22.1 31.9L9.1 18.9C7.7 17.3 7.7 14.9 9.1 13.2L11.2 11.1L13.3 9C15 7.6 17.4 7.6 19 9L32 22L45 9C46.7 7.6 49.1 7.6 50.7 9L52.8 11.1L54.9 13.2C56.3 14.8 56.3 17.2 54.9 18.9L41.9 31.9L54.9 44.9C56.3 46.5 56.3 48.9 54.9 50.6L50.5 54.9C48.8 56.3 46.4 56.3 44.8 54.9L31.8 41.9L18.8 54.8C17.1 56.2 14.7 56.2 13.1 54.8L8.7 50.5C7.7 48.9 7.7 46.3 9.1 44.9z" />
    <glyph glyph-name="eye-blocked"
      unicode="&#xF11A;"
      horiz-adv-x="64" d=" M59.1 61.1C57.9 62.3 56 62.3 54.9 61.1L42.2 48.5C39 49.5 35.6 50 32 50C18 50 5.9 41.9 0 30C2.6 24.9 6.3 20.4 10.8 17.1L0.9 7.2C-0.3 6 -0.3 4.1 0.9 3C1.5 2.3 2.2 2 3 2S4.5 2.3 5.1 2.9L59.1 56.9C60.3 58 60.3 59.9 59.1 61.1L59.1 61.1zM26 42C28.6 42 30.9 40.3 31.7 37.9L24.1 30.3C21.7 31.1 20 33.3 20 36C20 39.3 22.7 42 26 42zM6.9 30C9.3 33.8 12.5 37 16.2 39.4C16.4 39.6 16.7 39.7 16.9 39.9C16.3 38.2 15.9 36.3 15.9 34.4C15.9 31 17 27.8 18.8 25.2L15 21.4C11.8 23.7 9 26.6 6.9 30z M48 34.4C48 36.1 47.7 37.7 47.2 39.3L27.1 19.1C28.6 18.6 30.3 18.3 32 18.3C40.8 18.4 48 25.5 48 34.4z M51.9 43.9L47.6 39.6C47.7 39.6 47.8 39.5 47.8 39.5C51.6 37.1 54.7 33.9 57.1 30.1C54.7 26.3 51.5 23.1 47.8 20.7C43.1 17.6 37.6 16 32 16C29.6 16 27.2 16.3 24.9 16.9L20.1 12.1C23.8 10.7 27.8 10 32 10C46 10 58.1 18.1 64 30C61.2 35.6 57 40.4 51.9 43.9z" />
    <glyph glyph-name="eye"
      unicode="&#xF11B;"
      horiz-adv-x="64" d=" M32 53C18 53 5.9 44.9 0 33C5.9 21.1 18 13 32 13S58.1 21.1 64 33C58.1 44.9 46 53 32 53zM47.8 42.4C51.6 40 54.7 36.8 57.1 33C54.7 29.2 51.5 26 47.8 23.6C43.1 20.6 37.6 19 32 19S21 20.6 16.2 23.6C12.5 26 9.3 29.2 6.9 33C9.3 36.8 12.5 40 16.2 42.4C16.4 42.6 16.7 42.7 16.9 42.9C16.3 41.2 15.9 39.3 15.9 37.4C15.9 28.6 23.1 21.4 31.9 21.4S47.9 28.6 47.9 37.4C47.9 39.3 47.6 41.2 46.9 42.9C47.3 42.7 47.5 42.5 47.8 42.4L47.8 42.4L47.8 42.4zM32 39C32 35.7 29.3 33 26 33S20 35.7 20 39S22.7 45 26 45S32 42.3 32 39z" />
    <glyph glyph-name="gear_line"
      unicode="&#xF11C;"
      horiz-adv-x="63.8003120124805" d=" M31.9500780031201 42.0343213728549A9.98439937597504 9.98439937597504 0 1 1 41.9344773790952 32.0499219968799A9.98439937597504 9.98439937597504 0 0 1 31.9500780031201 42.0343213728549zM31.9500780031201 24.0624024960998A7.9875195007800315 7.9875195007800315 0 1 0 39.9375975039002 32.0499219968799A7.9875195007800315 7.9875195007800315 0 0 0 31.9500780031201 24.0624024960998z M63.6605304212169 35.3048361934477A2.9753510140405615 2.9753510140405615 0 0 1 60.6652106084243 38.1004680187208H57.9095163806552A0.9984399375975039 0.9984399375975039 0 0 0 56.8711388455538 38.9790951638066A31.59063962558502 31.59063962558502 0 0 1 54.414976599064 45.1294851794072A1.1182527301092045 1.1182527301092045 0 0 0 54.6346333853354 46.3675507020281L56.6315132605304 48.4642745709828A3.095163806552262 3.095163806552262 0 0 1 56.6315132605304 52.2583463338534A21.96567862714509 21.96567862714509 0 0 1 54.6346333853354 54.7544461778471A22.245241809672386 22.245241809672386 0 0 1 52.1385335413417 56.7513260530421A3.1550702028081123 3.1550702028081123 0 0 1 47.9251170046802 56.5716068642746L45.9282371294852 54.5747269890796A0.8786271450858034 0.8786271450858034 0 0 0 44.7301092043682 54.5747269890796A23.303588143525744 23.303588143525744 0 0 1 38.4599063962558 57.0708268330733A0.9585023400936038 0.9585023400936038 0 0 0 37.6611544461778 58.0892355694228V60.8648985959438A2.955382215288611 2.955382215288611 0 0 1 34.9853354134165 63.8402496099844H34.9853354134165A35.00530421216849 35.00530421216849 0 0 1 28.4954758190328 63.8402496099844A2.9753510140405615 2.9753510140405615 0 0 1 25.6998439937598 60.8449297971919V58.009360374415A0.9984399375975039 0.9984399375975039 0 0 0 24.821216848674 56.9709828393136A31.490795631825275 31.490795631825275 0 0 1 18.6708268330733 54.5547581903276A0.8187207488299532 0.8187207488299532 0 0 0 17.6324492979719 54.7744149765991L15.5357254290172 56.7712948517941A3.095163806552262 3.095163806552262 0 0 1 11.7416536661466 56.7712948517941A21.96567862714509 21.96567862714509 0 0 1 9.2455538221529 54.7744149765991A21.825897035881436 21.825897035881436 0 0 1 7.2486739469579 52.2783151326053A3.4146645865834633 3.4146645865834633 0 0 1 7.2486739469579 48.1847113884555L9.2455538221529 46.1878315132605A0.8786271450858034 0.8786271450858034 0 0 0 9.2455538221529 44.9897035881435A23.28361934477379 23.28361934477379 0 0 1 6.7494539781591 38.7195007800312A0.9585023400936038 0.9585023400936038 0 0 0 5.7310452418097 37.9207488299532H3.1351014040562A2.955382215288611 2.955382215288611 0 0 1 0.1397815912637 35.2249609984399A34.765678627145085 34.765678627145085 0 0 1 0.1397815912637 28.7351014040562A2.9753510140405615 2.9753510140405615 0 0 1 3.1351014040562 25.9394695787832H5.990639625585A0.9984399375975039 0.9984399375975039 0 0 0 7.0290171606864 25.0608424336973A31.610608424336977 31.610608424336977 0 0 1 9.4452418096724 18.8705148205928A0.8187207488299532 0.8187207488299532 0 0 0 9.2255850234009 17.8321372854914L7.2287051482059 15.7354134165367A3.095163806552262 3.095163806552262 0 0 1 7.2287051482059 11.9413416536661A22.385023400936042 22.385023400936042 0 0 1 9.2255850234009 9.4452418096724A21.96567862714509 21.96567862714509 0 0 1 11.7216848673947 7.4483619344774A3.434633385335413 3.434633385335413 0 0 1 15.8152886115445 7.4483619344774L17.8121684867395 9.4452418096724A0.8786271450858034 0.8786271450858034 0 0 0 19.0102964118565 9.4452418096724A23.26365054602184 23.26365054602184 0 0 1 25.2804992199688 6.9491419656786A0.9585023400936038 0.9585023400936038 0 0 0 26.0792511700468 5.9307332293292V3.1351014040562A3.015288611544462 3.015288611544462 0 0 1 28.814976599064 0.0998439937597C29.9332293291732 0 31.0315132605304 -0.0599063962559 32.1098283931357 -0.0599063962559S34.2265210608424 -0.0599063962559 35.3048361934477 0.0798751950078A2.9753510140405615 2.9753510140405615 0 0 1 38.1004680187208 3.0751950078003V6.0904836193448A0.9984399375975039 0.9984399375975039 0 0 0 38.9790951638066 7.1288611544462A31.430889235569424 31.430889235569424 0 0 1 45.1294851794072 9.585023400936A1.1382215288611544 1.1382215288611544 0 0 0 46.3675507020281 9.585023400936L48.3644305772231 7.588143525741A2.855538221528861 2.855538221528861 0 0 1 52.3581903276131 7.2886115444618A20.70764430577223 20.70764430577223 0 0 1 54.6546021840874 9.2854914196568A21.70608424336973 21.70608424336973 0 0 1 56.6514820592824 11.7815912636505A3.4146645865834633 3.4146645865834633 0 0 1 56.6514820592824 15.8751950078003L54.6546021840874 17.8720748829953A0.8786271450858034 0.8786271450858034 0 0 0 54.6546021840874 19.0702028081123A23.28361934477379 23.28361934477379 0 0 1 57.1507020280811 25.3404056162247A0.9385335413416535 0.9385335413416535 0 0 0 58.0892355694228 26.1391575663027L60.6851794071763 25.9394695787832A2.955382215288611 2.955382215288611 0 0 1 63.7603744149766 28.6352574102964A34.90546021840874 34.90546021840874 0 0 1 63.6605304212169 35.3048361934477zM61.6636505460218 28.9148205928237C61.6636505460218 28.5354134165367 61.184399375975 28.1360374414977 60.7051482059282 28.1160686427457L58.0692667706708 28.3157566302652A2.955382215288611 2.955382215288611 0 0 1 55.0939157566303 25.9195007800312A21.34664586583463 21.34664586583463 0 0 0 52.8773790951638 20.3282371294852A2.815600624024961 2.815600624024961 0 0 1 53.1769110764431 16.6340093603744L55.1737909516381 14.7369734789392A1.4177847113884552 1.4177847113884552 0 0 0 55.1737909516381 13.1394695787832A20.108580343213728 20.108580343213728 0 0 0 53.1769110764431 10.8430577223089A20.547893915756628 20.547893915756628 0 0 0 50.9803432137285 8.8461778471139A0.9385335413416535 0.9385335413416535 0 0 0 49.8021840873635 9.0458658346334L47.8053042121685 11.0427457098284A3.0751950078003123 3.0751950078003123 0 0 1 44.2109204368175 11.4221528861155A29.553822152886113 29.553822152886113 0 0 0 38.5198127925117 9.1257410296412A2.955382215288611 2.955382215288611 0 0 1 36.0836193447738 6.0904836193448V3.0951638065523A0.9984399375975039 0.9984399375975039 0 0 0 35.204992199688 2.0967238689548A33.50764430577223 33.50764430577223 0 0 0 28.8948517940718 2.0967238689548A0.9984399375975039 0.9984399375975039 0 0 0 28.0960998439938 3.0951638065523V5.8907956318253A2.955382215288611 2.955382215288611 0 0 1 25.6998439937598 8.8661466458658A21.34664586583463 21.34664586583463 0 0 0 20.1085803432137 11.0826833073323A2.7756630265210607 2.7756630265210607 0 0 1 18.4312012480499 11.6418096723869A2.855538221528861 2.855538221528861 0 0 1 16.4343213728549 10.783151326053L14.5372854914197 8.786271450858A1.4177847113884552 1.4177847113884552 0 0 0 12.9397815912637 8.786271450858A19.96879875195008 19.96879875195008 0 0 0 10.6433697347894 10.783151326053A20.348205928237128 20.348205928237128 0 0 0 8.6464898595944 13.0795631825273A1.0982839313572543 1.0982839313572543 0 0 0 8.6464898595944 14.377535101404L10.6433697347894 16.3744149765991A2.8355694227769104 2.8355694227769104 0 0 1 11.202496099844 19.7691107644306A29.653666146645865 29.653666146645865 0 0 0 8.9060842433697 25.4801872074883A2.955382215288611 2.955382215288611 0 0 1 5.990639625585 27.9163806552262H3.1351014040562A0.9984399375975039 0.9984399375975039 0 0 0 2.1366614664587 28.795007800312A33.50764430577223 33.50764430577223 0 0 0 2.1366614664587 35.1051482059282A0.9984399375975039 0.9984399375975039 0 0 0 3.1351014040562 35.9039001560062H5.7310452418097A2.955382215288611 2.955382215288611 0 0 1 8.7063962558502 38.3001560062403A21.446489859594386 21.446489859594386 0 0 0 10.9229329173167 43.8914196567863A2.815600624024961 2.815600624024961 0 0 1 10.6234009360374 47.585647425897L8.6265210608424 49.4826833073323A1.4177847113884552 1.4177847113884552 0 0 0 8.6265210608424 51.0801872074883A20.20842433697348 20.20842433697348 0 0 0 10.6234009360374 53.3765990639626A20.32823712948518 20.32823712948518 0 0 0 12.9198127925117 55.3734789391576A1.0982839313572543 1.0982839313572543 0 0 0 14.2177847113885 55.3734789391576L16.2146645865835 53.3765990639626A2.855538221528861 2.855538221528861 0 0 1 19.609360374415 52.817472698908A29.693603744149762 29.693603744149762 0 0 0 25.3204368174727 55.1138845553822A2.955382215288611 2.955382215288611 0 0 1 27.6967238689548 58.009360374415V60.8648985959438A0.9984399375975039 0.9984399375975039 0 0 0 28.5953198127925 61.8633385335413A33.56755070202808 33.56755070202808 0 0 0 34.8854914196568 61.8633385335413A0.9984399375975039 0.9984399375975039 0 0 0 35.6842433697348 60.8648985959438V58.009360374415A2.955382215288611 2.955382215288611 0 0 1 38.0804992199688 55.0340093603744A21.426521060842433 21.426521060842433 0 0 0 43.6717628705148 52.817472698908A2.815600624024961 2.815600624024961 0 0 1 47.3659906396256 53.1170046801872L49.3628705148206 55.1138845553822A1.1382215288611544 1.1382215288611544 0 0 0 50.8605304212169 55.213728549142A20.22839313572543 20.22839313572543 0 0 0 53.1569422776911 53.216848673947A19.96879875195008 19.96879875195008 0 0 0 55.1538221528861 50.9204368174727A1.0982839313572543 1.0982839313572543 0 0 0 55.1538221528861 49.6224648985959L53.1569422776911 47.6255850234009A3.1351014040561624 3.1351014040561624 0 0 1 52.5978159126365 44.0312012480499A29.653666146645865 29.653666146645865 0 0 0 54.8942277691108 38.3400936037442A2.955382215288611 2.955382215288611 0 0 1 57.9095163806552 36.0436817472699H60.7051482059282A0.9984399375975039 0.9984399375975039 0 0 0 61.7035881435257 35.1650546021841A33.66739469578783 33.66739469578783 0 0 0 61.6636505460218 28.9148205928237z" />
    <glyph glyph-name="help_circle"
      unicode="&#xF11D;"
      horiz-adv-x="64" d=" M32 64C14.3 64 0 49.7 0 32S14.3 0 32 0S64 14.3 64 32S49.7 64 32 64zM30.4 10.2C27.9 10.2 26 12.2 26 14.8C26 17.5 27.9 19.5 30.5 19.5C33.1 19.5 34.9 17.5 34.9 14.8C34.9 12.2 33 10.2 30.4 10.2zM36.9 33.1C34.5 30.2 33.5 29.5 33.7 26.6L33.8 24.1H27.4L27.2 26.5C26.8 30.2 28.1 32.1 31.1 35.8C33.6 38.8 35.1 41 35.1 43.5C35.1 46.2 33.4 47.7 30.3 47.8C28.3 47.8 26.1 47.1 24.8 46.1L23.9 45.4L21.8 50.9L22.3 51.3C24.4 52.9 28 53.9 31.4 53.9C38.9 53.9 42.3 49 42.3 44.2C42.3 39.8 39.9 36.7 36.9 33.1z" />
    <glyph glyph-name="info_circle"
      unicode="&#xF11E;"
      horiz-adv-x="64" d=" M32 64C14.3 64 0 49.7 0 32S14.3 0 32 0S64 14.3 64 32S49.7 64 32 64zM35.9 13H28.2V37.9H35.9V13zM32 43C29.4 43 27.5 44.6 27.5 47C27.5 49.4 29.4 51 32 51S36.5 49.4 36.5 47S34.6 43 32 43z" />
    <glyph glyph-name="ovh"
      unicode="&#xF11F;"
      horiz-adv-x="64" d=" M59.9 48.6L53 36.4H45.8L37.3 21.7H44.5L39.1 12.9H56.7C61.3 18.5 63.9 25.6 64 32.9C64 38.4 62.6 43.8 59.9 48.6L59.9 48.6zM24.9 12.9L46.9 51H28.3L15.7 29L4.2 48.9C1.4 44.1 0 38.7 0 33.2C0 25.8 2.6 18.7 7.2 13H24.9L24.9 12.9z" />
    <glyph glyph-name="padlock-close"
      unicode="&#xF120;"
      horiz-adv-x="52.705882352941174" d=" M48.9411764705882 37.6470588235294H45.1764705882353V45.1764705882353A18.823529411764707 18.823529411764707 0 1 1 7.5294117647059 45.1764705882353V37.6470588235294H3.7647058823529A3.764705882352941 3.764705882352941 0 0 1 0 33.8823529411765V3.7647058823529A3.764705882352941 3.764705882352941 0 0 1 3.7647058823529 0H48.9411764705882A3.764705882352941 3.764705882352941 0 0 1 52.7058823529412 3.7647058823529V33.8823529411765A3.764705882352941 3.764705882352941 0 0 1 48.9411764705882 37.6470588235294zM15.0588235294118 45.1764705882353A11.294117647058824 11.294117647058824 0 1 0 37.6470588235294 45.1764705882353V37.6470588235294H15.0588235294118z" />
    <glyph glyph-name="page_line"
      unicode="&#xF121;"
      horiz-adv-x="52" d=" M52 51.38A1 1 0 0 1 51.78 51.7L39.78 63.7A1 1 0 0 1 39 64H3A2.88 2.88 0 0 1 0 61V3A2.9 2.9 0 0 1 3 0H49A2.9 2.9 0 0 1 52 3V51A1 1 0 0 1 52 51.38zM40 60.58L48.58 52H41A0.8999999999999999 0.8999999999999999 0 0 0 40 53zM50 3A0.8999999999999999 0.8999999999999999 0 0 0 49 2H3A0.8999999999999999 0.8999999999999999 0 0 0 2 3V61A0.8999999999999999 0.8999999999999999 0 0 0 3 62H38V53A2.9 2.9 0 0 1 41 50H50z M8 41A1 1 0 0 1 9 40H43A1 1 0 0 1 43 42H9A1 1 0 0 1 8 41z M43 32H9A1 1 0 0 1 9 30H43A1 1 0 0 1 43 32z M43 22H9A1 1 0 0 1 9 20H43A1 1 0 0 1 43 22z M43 12H9A1 1 0 0 1 9 10H43A1 1 0 0 1 43 12z" />
    <glyph glyph-name="paperplane_line"
      unicode="&#xF122;"
      horiz-adv-x="57.6" d=" M57.6 62.432A1.568 1.568 0 0 1 57.152 63.488L57.152 63.488L56.8 63.776H56.8A1.568 1.568 0 0 1 55.872 64H55.712L55.392 64L0.992 41.6A1.6000000000000003 1.6000000000000003 0 0 1 0.48 38.976L16 23.328V8A1.6000000000000003 1.6000000000000003 0 0 1 16.832 6.592A1.568 1.568 0 0 1 17.6 6.4A1.6000000000000003 1.6000000000000003 0 0 1 18.496 6.656L27.008 12.32L38.88 0.448A1.6000000000000003 1.6000000000000003 0 0 1 40 -0.032L40.416 -0.032A1.6000000000000003 1.6000000000000003 0 0 1 41.536 1.12L57.536 61.92A1.5360000000000003 1.5360000000000003 0 0 1 57.536 62.176A1.5360000000000003 1.5360000000000003 0 0 1 57.6 62.432zM49.216 57.888L17.6 26.272L4.416 39.424zM19.2 10.976V20.128L24.704 14.624zM39.168 4.576L19.968 23.776L52.96 57.088z" />
    <glyph glyph-name="pdf_line"
      unicode="&#xF123;"
      horiz-adv-x="57.6" d=" M52.8 0H4.8C2.24 0 0 2.24 0 4.8V59.2C0 61.76 2.24 64 4.8 64H43.2C43.52 64 44.16 63.68 44.48 63.68L57.28 50.88C57.28 50.56 57.6 49.92 57.6 49.6V4.8C57.6 2.24 55.36 0 52.8 0zM4.8 60.8C3.84 60.8 3.2 60.16 3.2 59.2V4.8C3.2 3.84 3.84 3.2 4.8 3.2H52.8C53.76 3.2 54.4 3.84 54.4 4.8V48.96L42.56 60.8H4.8z M56 48H46.4C43.84 48 41.6 50.24 41.6 52.8V62.4C41.6 63.36 42.24 64 43.2 64S44.8 63.36 44.8 62.4V52.8C44.8 51.84 45.44 51.2 46.4 51.2H56C56.96 51.2 57.6 50.56 57.6 49.6S56.96 48 56 48z M12.8 11.52C12.16 11.52 11.52 11.84 10.88 12.16C8.96 13.44 8.64 15.04 8.64 16.32C8.64 18.88 10.88 21.44 12.48 22.4C14.72 23.68 19.2 25.6 20.8 26.24C21.12 26.56 21.12 26.88 21.44 27.2L22.08 28.48C23.68 31.68 24.96 34.56 26.24 37.44C24.64 38.72 23.68 40.64 23.36 42.24C22.08 46.4 22.4 49.28 23.68 51.2C24.64 52.16 25.6 52.8 26.88 52.8C27.52 52.8 28.8 52.8 30.08 51.52C31.36 50.24 31.68 48.32 31.36 45.44C31.04 42.88 30.08 40.32 29.12 37.44C31.04 34.56 33.6 31.68 35.84 29.12C38.08 29.12 40.64 29.12 43.52 28.8C43.84 28.8 47.36 28.48 48.96 25.92C49.6 24.96 49.92 23.68 49.6 22.4C49.28 21.12 48.32 20.16 47.04 19.84C44.48 18.88 40.96 20.48 39.68 21.44C39.36 21.76 37.44 23.68 34.88 26.24C28.8 25.92 24.32 24.32 22.72 23.68C19.52 17.28 16.96 12.8 13.76 11.84C13.44 11.52 13.12 11.52 12.8 11.52zM18.88 22.08C16.96 21.44 15.04 20.48 14.08 19.84C13.12 19.2 11.52 17.6 11.52 16.32C11.52 16 11.52 15.36 12.48 14.72C12.8 14.72 12.8 14.72 13.12 14.72C14.72 15.04 16.96 18.56 18.88 22.08zM38.4 26.24C39.68 24.96 40.64 24 40.96 23.68C41.92 22.72 44.8 21.76 46.08 22.4C46.4 22.4 46.4 22.72 46.4 23.04C46.4 23.68 46.4 24 46.4 24.32C45.76 25.28 43.84 25.92 42.88 25.92C41.28 26.24 39.68 26.24 38.4 26.24zM27.84 33.92C26.88 32 25.92 29.76 24.64 27.2C26.56 27.84 29.12 28.16 32 28.8C30.72 30.4 29.12 32 27.84 33.92zM26.88 49.28C26.88 49.28 26.56 49.28 26.24 48.96C25.92 48.64 24.64 47.04 26.24 42.24C26.56 41.6 26.88 40.96 27.52 40.32C28.16 41.92 28.48 43.52 28.8 45.12C29.12 48 28.48 48.96 28.16 49.28C27.84 49.28 27.84 49.28 26.88 49.28z" />
    <glyph glyph-name="pen_line"
      unicode="&#xF124;"
      horiz-adv-x="64" d=" M60 59.8C55.1 64.7 47.9 65.3 43.4 61.3C43.2 61.2 43.1 61.1 43 61L2.9 20.7C2.8 20.6 2.7 20.5 2.7 20.4H2.6L2.6 19.8L0 1.7C0 1.2 0.1 0.9 0.4 0.4C0.7 0.1 1 0 1.5 0L19.7 2.3H20C20.1 2.3 20.2 2.3 20.3 2.4C20.4 2.4 20.4 2.5 20.5 2.5L61.1 43.1C65.4 47.4 64.9 54.9 60 59.8zM16.2 5.1L3.4 3.4L5 16.2L16.2 5.1zM55 41.3L19.7 6L6 19.6L41.4 54.9L55 41.3zM59.7 46.2L57.1 43.6L43.6 57L46.3 59.5C49.4 61.8 54.5 60.9 57.9 57.5C61.2 54.3 62 49.3 59.7 46.2z" />
    <glyph glyph-name="power_line"
      unicode="&#xF125;"
      horiz-adv-x="64" d=" M46.2 55.7C45 56.1 43.8 55.7 43.4 54.9C43 53.7 43.4 52.5 44.2 52.1C52.5 47.4 57.6 39.1 57.6 29.6C57.7 15.4 46.2 4 32 4S6.3 15.4 6.3 29.6C6.3 39.1 11.4 47.8 19.7 52.1C20.5 52.9 20.9 54.1 20.5 54.9C19.7 55.7 18.5 56.1 17.7 55.7C8.3 50.2 2.4 40.3 2.4 29.6C2.4 13.4 15.8 0 32 0S61.6 13.4 61.6 29.6C61.6 40.7 55.7 50.6 46.2 55.7L46.2 55.7z M32 40.3C33.2 40.3 34 41.1 34 42.3V62C34 63.2 33.2 64 32 64C30.8 64 30 63.2 30 62V42.2C30 41.1 30.8 40.3 32 40.3z" />
    <glyph glyph-name="printer_line"
      unicode="&#xF126;"
      horiz-adv-x="71.11111111111111" d=" M10.6666666666667 37.3333333333333C10.6666666666667 36.3514937780786 11.4626048891897 35.5555555555556 12.4444444444444 35.5555555555556C13.4262839996992 35.5555555555556 14.2222222222222 36.3514937780786 14.2222222222222 37.3333333333333C14.2222222222222 38.3151728885881 13.4262839996992 39.1111111111111 12.4444444444444 39.1111111111111C11.4626048891897 39.1111111111111 10.6666666666667 38.3151728885881 10.6666666666667 37.3333333333333z M69.3333333333333 49.7777777777778H56.8888888888889V62.2222222222222A1.7777777777777777 1.7777777777777777 0 0 1 55.1111111111111 64H16A1.7777777777777777 1.7777777777777777 0 0 1 14.2222222222222 62.2222222222222V49.7777777777778H1.7777777777778A1.7777777777777777 1.7777777777777777 0 0 1 0 48V19.5555555555556A1.7777777777777777 1.7777777777777777 0 0 1 1.7777777777778 17.7777777777778H14.2222222222222V1.7777777777778A1.7777777777777777 1.7777777777777777 0 0 1 16 0H55.1111111111111A1.7777777777777777 1.7777777777777777 0 0 1 56.8888888888889 1.7777777777778V17.7777777777778H69.3333333333333A1.7777777777777777 1.7777777777777777 0 0 1 71.1111111111111 19.5555555555556V48A1.7777777777777777 1.7777777777777777 0 0 1 69.3333333333333 49.7777777777778zM17.7777777777778 60.4444444444444H53.3333333333333V49.7777777777778H17.7777777777778zM53.3333333333333 3.5555555555556H17.7777777777778V24.8888888888889H53.3333333333333zM67.5555555555556 21.3333333333333H56.8888888888889V26.6666666666667A1.7777777777777777 1.7777777777777777 0 0 1 55.1111111111111 28.4444444444444H16A1.7777777777777777 1.7777777777777777 0 0 1 14.2222222222222 26.6666666666667V21.3333333333333H3.5555555555556V46.2222222222222H67.5555555555556z M48 17.7777777777778H23.1111111111111A1.7777777777777777 1.7777777777777777 0 0 1 23.1111111111111 14.2222222222222H48A1.7777777777777777 1.7777777777777777 0 0 1 48 17.7777777777778z M48 10.6666666666667H23.1111111111111A1.7777777777777777 1.7777777777777777 0 0 1 23.1111111111111 7.1111111111111H48A1.7777777777777777 1.7777777777777777 0 0 1 48 10.6666666666667z" />
    <glyph glyph-name="remove"
      unicode="&#xF127;"
      horiz-adv-x="64" d=" M0 38.4H64V25.6H0V38.4z" />
    <glyph glyph-name="success_circle"
      unicode="&#xF128;"
      horiz-adv-x="64" d=" M32 64C14.3 64 0 49.7 0 32S14.3 0 32 0S64 14.3 64 32S49.7 64 32 64zM50 40.6L36.7 28.1L26.8 18.9C25.8 18 24.4 18.1 23.5 19L21.5 21.2L13.5 29.7C12.6 30.7 12.7 32.1 13.6 33L15.5 34.7L15.9 35.1C16.9 36 18.3 35.9 19.2 35L25.4 28.4L27.2 30L33.5 35.9L43.1 44.9L44.7 46.4C45.7 47.3 47.1 47.2 48 46.3L50.2 43.9C50.2 43.9 50.2 43.9 50.2 43.9C51.1 43 51 41.5 50 40.6z" />
    <glyph glyph-name="success"
      unicode="&#xF129;"
      horiz-adv-x="64" d=" M62.6 45.3L40.2 24.4L23.5 9C21.8 7.5 19.5 7.7 17.9 9.2L14.5 12.9L1 27C-0.5 28.7 -0.3 31 1.2 32.5L4.4 35.4L5.1 36.1C6.8 37.6 9.1 37.4 10.7 35.9L21.2 24.9L24.2 27.6L34.8 37.5L50.9 52.5L53.7 55C55.4 56.5 57.7 56.3 59.3 54.8L63 50.8L63 50.8C64.5 49.3 64.3 46.8 62.6 45.3z" />
    <glyph glyph-name="trash_line"
      unicode="&#xF12A;"
      horiz-adv-x="64" d=" M58.2 58H41V61C41 62.7 39.7 64 38 64H26C24.4 64 23 62.7 23 61V58H5.8C5 58 4.3 57.3 4.3 56.5S5 55 5.8 55H8.6L10.5 5.5C10.6 2.5 13.1 0.1 16.1 0.1H47.8C50.8 0.1 53.3 2.5 53.4 5.5L55.4 55H58.2C59 55 59.7 55.7 59.7 56.5C59.7 57.3 59 58 58.2 58zM26 61H38V58H26V61zM50.5 5.5C50.4 4.1 49.3 3 47.9 3H16.1C14.7 3 13.5 4.1 13.5 5.5L11.6 55H52.3L50.5 5.5z M22.8 41.3C22.8 42.1 22.1 42.8 21.3 42.8C21.3 42.8 21.3 42.8 21.3 42.8C20.5 42.8 19.8 42.1 19.8 41.3L20.3 16.7C20.3 15.9 21 15.2 21.8 15.2C21.8 15.2 21.8 15.2 21.8 15.2C22.6 15.2 23.3 15.9 23.3 16.7L22.8 41.3z M32 42.8C31.2 42.8 30.5 42.1 30.5 41.3V16.7C30.5 15.9 31.2 15.2 32 15.2C32.8 15.2 33.5 15.9 33.5 16.7V41.3C33.5 42.1 32.8 42.8 32 42.8z M42.7 42.8C41.9 42.8 41.2 42.2 41.2 41.3L40.7 16.7C40.7 15.9 41.3 15.2 42.2 15.2C42.2 15.2 42.2 15.2 42.2 15.2C43 15.2 43.7 15.9 43.7 16.7L44.2 41.3C44.2 42.1 43.5 42.8 42.7 42.8z" />
    <glyph glyph-name="user_line"
      unicode="&#xF12B;"
      horiz-adv-x="44" d=" M22 40A12 12 0 1 0 34 52A12 12 0 0 0 22 40zM22 62A10 10 0 1 1 32 52A10 10 0 0 1 22 62z M43 0H1A1 1 0 0 0 0 1V12.4A22 22 0 0 0 44 12.4V1A1 1 0 0 0 43 0zM2 2H42V12.4A20 20 0 0 1 2 12.4z" />
    <glyph glyph-name="warning_circle"
      unicode="&#xF12C;"
      horiz-adv-x="64" d=" M63.4 7.4L51.7 27.5L46.3 36.7L34.7 56.7C33.2 59.2 30.8 59.2 29.4 56.7L17.7 36.7L12.3 27.5L0.6 7.4C-0.9 4.9 0.3 2.8 3.2 2.8H60.6C63.7 2.8 64.8 4.9 63.4 7.4zM28.7 43C28.7 44.8 30 45.9 32 45.9S35.1 44.9 35.1 43C35.3 36.1 35 29.1 34.3 22.2C34.3 22.1 34.3 22 34.3 21.9C34.1 20.8 33.1 20 32 20.2C31 20.2 29.8 20.4 29.6 22.2C29 29.1 28.6 36.1 28.7 43zM32 9.8C30.2 9.8 28.7 11.3 28.7 13.1C28.7 14.9 30.2 16.4 32 16.4S35.3 14.9 35.3 13.1C35.3 11.3 33.8 9.8 32 9.8z" />
  </font>
</defs>
</svg>
